<svg width="50" height="51" viewBox="0 0 50 51" fill="none" xmlns="http://www.w3.org/2000/svg">
<g clip-path="url(#clip0_402_326)">
<path d="M25 50.8181C38.8071 50.8181 50 39.6252 50 25.8181C50 12.011 38.8071 0.818115 25 0.818115C11.1929 0.818115 0 12.011 0 25.8181C0 39.6252 11.1929 50.8181 25 50.8181Z" fill="#F0F0F0"/>
<path d="M33.6956 25.8182C33.6956 27.9921 29.8024 33.4269 25 33.4269C20.1975 33.4269 16.3044 27.9921 16.3044 25.8182C16.3044 21.0156 20.1975 17.1226 25 17.1226C29.8024 17.1226 33.6956 21.0156 33.6956 25.8182Z" fill="#D80027"/>
<path d="M33.6956 25.8181C33.6956 30.6207 29.8024 34.5137 25 34.5137C20.1975 34.5137 16.3044 30.6207 16.3044 25.8181" fill="#0052B4"/>
<path d="M34.2162 33.5044L36.5217 31.199L38.0586 32.7359L35.7532 35.0414L34.2162 33.5044Z" fill="black"/>
<path d="M30.3728 37.3469L32.6782 35.0415L34.2152 36.5785L31.9098 38.8839L30.3728 37.3469Z" fill="black"/>
<path d="M38.8275 38.1151L41.1329 35.8097L42.6699 37.3467L40.3645 39.6521L38.8275 38.1151Z" fill="black"/>
<path d="M34.9841 41.9581L37.2895 39.6527L38.8264 41.1897L36.521 43.4951L34.9841 41.9581Z" fill="black"/>
<path d="M36.5218 35.8099L38.8272 33.5045L40.3642 35.0415L38.0588 37.3469L36.5218 35.8099Z" fill="black"/>
<path d="M32.6793 39.6523L34.9847 37.3469L36.5217 38.8839L34.2163 41.1893L32.6793 39.6523Z" fill="black"/>
<path d="M38.8376 18.136L32.6899 11.9882L34.2268 10.4512L40.3746 16.599L38.8376 18.136Z" fill="black"/>
<path d="M32.6887 16.5997L30.3833 14.2943L31.9202 12.7574L34.2256 15.0628L32.6887 16.5997Z" fill="black"/>
<path d="M36.5311 20.443L34.2257 18.1376L35.7626 16.6007L38.068 18.9061L36.5311 20.443Z" fill="black"/>
<path d="M37.2991 11.988L34.9937 9.68262L36.5306 8.14566L38.836 10.4511L37.2991 11.988Z" fill="black"/>
<path d="M41.1436 15.8318L38.8381 13.5264L40.3751 11.9894L42.6805 14.2948L41.1436 15.8318Z" fill="black"/>
<path d="M8.86273 35.8055L15.0105 41.9533L13.4736 43.4903L7.32577 37.3425L8.86273 35.8055Z" fill="black"/>
<path d="M15.0102 37.3413L17.3156 39.6467L15.7787 41.1836L13.4733 38.8782L15.0102 37.3413Z" fill="black"/>
<path d="M11.1675 33.4998L13.4729 35.8052L11.9359 37.3421L9.63052 35.0367L11.1675 33.4998Z" fill="black"/>
<path d="M13.4732 31.1936L19.621 37.3414L18.084 38.8784L11.9362 32.7306L13.4732 31.1936Z" fill="black"/>
<path d="M15.0099 9.67786L8.8621 15.8256L7.32513 14.2887L13.4729 8.14089L15.0099 9.67786Z" fill="black"/>
<path d="M17.3153 11.983L11.1675 18.1308L9.63055 16.5939L15.7783 10.4461L17.3153 11.983Z" fill="black"/>
<path d="M19.6229 14.2898L13.4751 20.4376L11.9382 18.9007L18.086 12.7529L19.6229 14.2898Z" fill="black"/>
</g>
<defs>
<clipPath id="clip0_402_326">
<rect width="50" height="50" fill="white" transform="translate(0 0.818115)"/>
</clipPath>
</defs>
</svg>
