<svg width="50" height="51" viewBox="0 0 50 51" fill="none" xmlns="http://www.w3.org/2000/svg">
<g clip-path="url(#clip0_402_286)">
<path d="M25 50.8182C38.8071 50.8182 50 39.6253 50 25.8182C50 12.0111 38.8071 0.818176 25 0.818176C11.1929 0.818176 0 12.0111 0 25.8182C0 39.6253 11.1929 50.8182 25 50.8182Z" fill="#F0F0F0"/>
<path d="M50 25.8182C50 39.6252 38.807 50.8182 25 50.8182C11.193 50.8182 0 39.6252 0 25.8182" fill="#496E2D"/>
<path d="M43.2631 18.215C42.3691 15.6795 39.9533 13.8618 37.112 13.8618H31.5218C27.9199 13.8618 25 16.7817 25 20.3835C25 21.5603 25.3133 22.6912 25.8585 23.6444C23.7826 23.6274 21.8614 23.6587 20.6522 23.6444C20.6522 21.1291 20.6522 17.925 20.6522 17.2546L20.909 16.9978C22.0619 15.8449 21.6775 13.9234 21.6775 13.9234C21.6775 13.9234 19.7562 13.5391 18.6032 14.692L17.2596 16.0357H15.7609C12.4591 16.0357 9.78263 18.7122 9.78263 22.0139H14.1305V26.9052C14.1305 27.6206 14.2747 28.3022 14.5354 28.9229L13.0435 30.1661H10.8695V27.9921H8.69562V32.34H18.4782V36.6878H16.3043V38.8618H20.6522V34.5139L22.6448 32.1226H27.3551L29.3478 34.5139V36.6878H27.1738V38.8618H35.8694V26.9051C35.8694 25.1042 37.3294 23.6443 39.1303 23.6443C39.1766 23.6443 39.2225 23.6459 39.2684 23.6478C39.1783 23.2994 39.1303 22.934 39.1303 22.5574C39.1305 20.2284 40.9618 18.3272 43.2631 18.215V18.215ZM31.5218 36.6877V32.1225H31.7029L33.6956 34.5138V36.6877H31.5218Z" fill="#D80027"/>
</g>
<defs>
<clipPath id="clip0_402_286">
<rect width="50" height="50" fill="white" transform="translate(0 0.818176)"/>
</clipPath>
</defs>
</svg>
