<svg width="50" height="51" viewBox="0 0 50 51" fill="none" xmlns="http://www.w3.org/2000/svg">
<g clip-path="url(#clip0_402_360)">
<path d="M25 50.6362C38.8071 50.6362 50 39.4434 50 25.6362C50 11.8291 38.8071 0.63623 25 0.63623C11.1929 0.63623 0 11.8291 0 25.6362C0 39.4434 11.1929 50.6362 25 50.6362Z" fill="#F0F0F0"/>
<path d="M25 0.63623C11.193 0.63623 0 11.8292 0 25.6362C0 28.6942 0.550098 31.6236 1.55498 34.3318H48.4451C49.45 31.6236 50 28.6942 50 25.6362C50 11.8292 38.807 0.63623 25 0.63623Z" fill="#0052B4"/>
<path d="M25 0.63623C14.2509 0.63623 5.08732 7.4206 1.55499 16.9406H48.4451C44.9127 7.4206 35.7491 0.63623 25 0.63623V0.63623Z" fill="#D80027"/>
<path d="M6.46466 14.7667V27.238C6.46466 34.3322 15.7323 36.5059 15.7323 36.5059C15.7323 36.5059 24.9999 34.3322 24.9999 27.238V14.7667H6.46466Z" fill="#D80027"/>
<path d="M10.2975 16.9406H21.1671V12.5927L18.9932 13.6797L15.7323 10.4188L12.4714 13.6797L10.2975 12.5927V16.9406Z" fill="#FFDA44"/>
<path d="M22.8261 28.9744L15.7609 21.9092L8.69562 28.9744L11.0014 31.2802L15.7609 26.5207L20.5203 31.2802L22.8261 28.9744Z" fill="#FFDA44"/>
<path d="M22.8261 22.3754H19.5296C19.715 22.0555 19.8228 21.685 19.8228 21.2887C19.8228 20.0879 18.8494 19.1147 17.6488 19.1147C16.8193 19.1147 16.0988 19.5794 15.7323 20.2625C15.3658 19.5795 14.6454 19.1147 13.8158 19.1147C12.6152 19.1147 11.6419 20.0879 11.6419 21.2887C11.6419 21.685 11.7497 22.0556 11.9351 22.3754H8.69562C8.69562 23.5761 9.74142 24.5493 10.9419 24.5493H10.8695C10.8695 25.75 11.8428 26.7232 13.0435 26.7232C13.0435 27.7863 13.8069 28.6695 14.8152 28.8586L13.1024 32.726C13.9233 33.0597 14.8203 33.245 15.761 33.245C16.7016 33.245 17.5986 33.0597 18.4195 32.726L16.7067 28.8586C17.715 28.6697 18.4784 27.7864 18.4784 26.7232C19.6791 26.7232 20.6524 25.75 20.6524 24.5493H20.58C21.7804 24.5493 22.8261 23.576 22.8261 22.3754V22.3754Z" fill="#F0F0F0"/>
</g>
<defs>
<clipPath id="clip0_402_360">
<rect width="50" height="50" fill="white" transform="translate(0 0.63623)"/>
</clipPath>
</defs>
</svg>
