<svg width="50" height="51" viewBox="0 0 50 51" fill="none" xmlns="http://www.w3.org/2000/svg">
<g clip-path="url(#clip0_402_333)">
<path d="M0 25.7271C0 36.4761 6.78438 45.6397 16.3042 49.172L18.4782 25.727L16.3042 2.2821C6.78438 5.81453 0 14.978 0 25.7271Z" fill="#6DA544"/>
<path d="M50 25.7272C50 11.9201 38.807 0.727173 25 0.727173C21.942 0.727173 19.0126 1.27727 16.3042 2.28215V49.1722C19.0126 50.1772 21.942 50.7272 25 50.7272C38.807 50.7272 50 39.5342 50 25.7272Z" fill="#D80027"/>
<path d="M16.3044 34.4228C21.1069 34.4228 25 30.5297 25 25.7272C25 20.9248 21.1069 17.0316 16.3044 17.0316C11.502 17.0316 7.6088 20.9248 7.6088 25.7272C7.6088 30.5297 11.502 34.4228 16.3044 34.4228Z" fill="#FFDA44"/>
<path d="M11.4131 21.3793V26.814C11.4131 29.5154 13.6029 31.7053 16.3044 31.7053C19.0059 31.7053 21.1957 29.5155 21.1957 26.814V21.3793H11.4131Z" fill="#D80027"/>
<path d="M16.3044 28.4446C15.4054 28.4446 14.6739 27.7131 14.6739 26.8141V24.6403H17.9348V26.8142C17.9348 27.7131 17.2033 28.4446 16.3044 28.4446Z" fill="#F0F0F0"/>
</g>
<defs>
<clipPath id="clip0_402_333">
<rect width="50" height="50" fill="white" transform="translate(0 0.727173)"/>
</clipPath>
</defs>
</svg>
